<?xml version="1.0" encoding="UTF-8" standalone="no"?>
<!-- Created with Inkscape (http://www.inkscape.org/) -->

<svg
   xmlns:dc="http://purl.org/dc/elements/1.1/"
   xmlns:cc="http://creativecommons.org/ns#"
   xmlns:rdf="http://www.w3.org/1999/02/22-rdf-syntax-ns#"
   xmlns:svg="http://www.w3.org/2000/svg"
   xmlns="http://www.w3.org/2000/svg"
   xmlns:xlink="http://www.w3.org/1999/xlink"
   xmlns:sodipodi="http://sodipodi.sourceforge.net/DTD/sodipodi-0.dtd"
   xmlns:inkscape="http://www.inkscape.org/namespaces/inkscape"
   width="500"
   height="264.73795"
   viewBox="0 0 132.29166 70.04525"
   version="1.1"
   id="svg1231"
   inkscape:version="0.92.4 (5da689c313, 2019-01-14)"
   sodipodi:docname="hentai.svg">
  <title
     id="title5331">Python Hentai API Wrapper Logo</title>
  <defs
     id="defs1225">
    <linearGradient
       gradientUnits="userSpaceOnUse"
       gradientTransform="matrix(0.14724234,0,0,0.1475707,223.24983,244.26235)"
       x1="24.714943"
       y1="22.898216"
       x2="151.13554"
       y2="148.33669"
       id="linearGradient-1">
      <stop
         stop-color="#387EB8"
         offset="0%"
         id="stop2" />
      <stop
         stop-color="#366994"
         offset="100%"
         id="stop4" />
    </linearGradient>
    <linearGradient
       gradientUnits="userSpaceOnUse"
       gradientTransform="matrix(0.14724233,0,0,0.14757071,223.24983,244.26235)"
       x1="102.48342"
       y1="103.26588"
       x2="238.25963"
       y2="231.90547"
       id="linearGradient-2">
      <stop
         stop-color="#FFE052"
         offset="0%"
         id="stop7" />
      <stop
         stop-color="#FFC331"
         offset="100%"
         id="stop9" />
    </linearGradient>
    <linearGradient
       inkscape:collect="always"
       xlink:href="#linearGradient-1"
       id="linearGradient5274"
       gradientUnits="userSpaceOnUse"
       gradientTransform="matrix(0.19446016,0,0,0.19489382,213.23826,134.36302)"
       x1="24.714943"
       y1="22.898216"
       x2="151.13554"
       y2="148.33669" />
    <linearGradient
       inkscape:collect="always"
       xlink:href="#linearGradient-2"
       id="linearGradient5276"
       gradientUnits="userSpaceOnUse"
       gradientTransform="matrix(0.19446015,0,0,0.19489383,213.23826,134.36302)"
       x1="102.48342"
       y1="103.26588"
       x2="238.25963"
       y2="231.90547" />
  </defs>
  <sodipodi:namedview
     id="base"
     pagecolor="#ffffff"
     bordercolor="#666666"
     borderopacity="1.0"
     inkscape:pageopacity="0.0"
     inkscape:pageshadow="2"
     inkscape:zoom="1.1185105"
     inkscape:cx="131.99668"
     inkscape:cy="229.52193"
     inkscape:document-units="px"
     inkscape:current-layer="layer2"
     showgrid="true"
     units="px"
     inkscape:window-width="1920"
     inkscape:window-height="1017"
     inkscape:window-x="1912"
     inkscape:window-y="-8"
     inkscape:window-maximized="1"
     fit-margin-top="0"
     fit-margin-left="0"
     fit-margin-right="0"
     fit-margin-bottom="0">
    <inkscape:grid
       type="xygrid"
       id="grid1776"
       spacingx="2.6458333"
       spacingy="2.6458333"
       originx="-198.43749"
       originy="-229.56071" />
  </sodipodi:namedview>
  <metadata
     id="metadata1228">
    <rdf:RDF>
      <cc:Work
         rdf:about="">
        <dc:format>image/svg+xml</dc:format>
        <dc:type
           rdf:resource="http://purl.org/dc/dcmitype/StillImage" />
        <dc:title>Python Hentai API Wrapper Logo</dc:title>
        <dc:date>2020/04/24</dc:date>
        <dc:creator>
          <cc:Agent>
            <dc:title>ヘンタイちゃん</dc:title>
          </cc:Agent>
        </dc:creator>
        <dc:rights>
          <cc:Agent>
            <dc:title>ヘンタイちゃん</dc:title>
          </cc:Agent>
        </dc:rights>
        <cc:license
           rdf:resource="http://www.gnu.org/licenses/gpl-3.0.html" />
      </cc:Work>
    </rdf:RDF>
  </metadata>
  <g
     inkscape:label="Layer 1"
     inkscape:groupmode="layer"
     id="layer1"
     transform="translate(-198.4375,2.605955)"
     style="display:inline" />
  <g
     inkscape:groupmode="layer"
     id="layer3"
     inkscape:label="Background"
     style="display:inline"
     transform="translate(-198.4375,-229.56071)" />
  <g
     inkscape:groupmode="layer"
     id="layer2"
     inkscape:label="Logo"
     style="display:inline"
     transform="translate(-198.4375,-229.56071)">
    <g
       id="g5327"
       transform="translate(26.458335,115.77042)">
      <path
         id="path5315"
         transform="scale(0.26458333)"
         d="m 718.27539,430.08008 c -1.25894,-0.009 -2.52179,-0.009 -3.78906,0.002 C 693.81238,430.25456 672.05357,433.10826 650,440 c 166.07146,31.07142 90,130 90,130 32.18467,-4.5978 53.77756,3.49392 67.73828,13.57227 4.30822,-19.9966 15.90675,-25.37989 23.01563,-26.7461 C 769.97871,519.48907 860,470 860,470 c 0,0 -62.4115,-39.33626 -141.72461,-39.91992 z"
         style="fill:#d81b60;fill-opacity:1;stroke:none;stroke-width:0.99999994px;stroke-linecap:butt;stroke-linejoin:miter;stroke-opacity:1"
         inkscape:connector-curvature="0" />
      <path
         id="path5270"
         d="m 238.30428,183.83554 c 12.62135,0 11.8332,-5.47338 11.8332,-5.47338 l -0.0141,-5.67037 H 238.0791 v -1.70252 h 16.82817 c 0,0 8.0764,0.91595 8.0764,-11.81912 0,-12.73505 -7.04925,-12.28344 -7.04925,-12.28344 h -4.20706 v 5.90956 c 0,0 0.22678,7.04927 -6.93669,7.04927 h -11.94575 c 0,0 -6.71157,-0.10843 -6.71157,6.48644 v 10.90455 c 0,0 -1.019,6.59901 12.17088,6.59901 v 0 z m 6.64123,-3.81307 c -1.19832,0 -2.16684,-0.96854 -2.16684,-2.16685 0,-1.19832 0.96852,-2.16684 2.16684,-2.16684 1.19831,0 2.16683,0.96852 2.16683,2.16684 1e-5,1.19831 -0.96852,2.16685 -2.16683,2.16685 z"
         inkscape:connector-curvature="0"
         style="fill:url(#linearGradient5276);stroke-width:0.26458332" />
      <path
         transform="scale(0.26458333)"
         id="path5307"
         d="m 1085.5137,430.08203 c -1.4322,-0.0119 -2.8579,-0.007 -4.2793,0.006 -0.4928,0.005 -0.9832,0.0139 -1.4746,0.0215 -0.9888,0.0153 -1.9757,0.0355 -2.959,0.0625 -0.4902,0.0135 -0.98,0.0286 -1.4688,0.0449 -0.9448,0.0316 -1.8847,0.0692 -2.8242,0.11132 -0.5144,0.0231 -1.0302,0.0442 -1.543,0.0703 -1.3484,0.0688 -2.6925,0.14674 -4.0293,0.23633 -0.2999,0.0201 -0.5971,0.0433 -0.8964,0.0645 -1.1388,0.0803 -2.2745,0.1669 -3.4043,0.26172 -0.3863,0.0324 -0.7711,0.0675 -1.1563,0.10156 -0.7906,0.0699 -1.5772,0.14786 -2.3633,0.22461 -2.062,0.20135 -4.1132,0.41793 -6.1425,0.66406 -0.1658,0.0201 -0.3287,0.0441 -0.4942,0.0645 -1.9533,0.24063 -3.8874,0.50412 -5.8086,0.78321 -0.4018,0.0584 -0.8047,0.11579 -1.2051,0.17578 -2.0085,0.30091 -4.0017,0.61762 -5.9726,0.95703 -0.3246,0.0559 -0.6452,0.11693 -0.9688,0.17383 -1.7753,0.31219 -3.5344,0.63983 -5.2773,0.98047 -0.3328,0.065 -0.6684,0.12732 -1,0.19336 -1.9075,0.37984 -3.794,0.77694 -5.6602,1.1875 -0.3772,0.083 -0.7514,0.16777 -1.1269,0.25195 -1.8446,0.41347 -3.673,0.83543 -5.4746,1.27539 -0.068,0.0166 -0.1372,0.0322 -0.2051,0.0488 -1.8527,0.45381 -3.6753,0.92592 -5.4805,1.4043 -0.4087,0.10832 -0.8164,0.21669 -1.2226,0.32617 -0.9366,0.25239 -1.8523,0.51332 -2.7754,0.77148 -1.6055,0.44902 -3.1924,0.90468 -4.7559,1.36914 -0.7241,0.21513 -1.4491,0.4304 -2.164,0.64844 -1.7991,0.5487 -3.5678,1.10562 -5.30668,1.66992 -0.38619,0.12533 -0.78482,0.24708 -1.16797,0.37305 -2.14028,0.70369 -4.23266,1.4174 -6.27539,2.13672 -0.44839,0.1579 -0.87871,0.31814 -1.32227,0.47656 -1.54904,0.55326 -3.07176,1.10861 -4.56054,1.66602 -0.66676,0.24964 -1.32414,0.50003 -1.97852,0.75 -1.31314,0.50162 -2.60111,1.00286 -3.86328,1.5039 -0.55028,0.21844 -1.10805,0.43631 -1.64844,0.6543 -1.70414,0.68744 -3.37136,1.37419 -4.97461,2.05273 -0.059,0.025 -0.1228,0.0493 -0.18164,0.0742 -1.68568,0.71464 -3.30005,1.42022 -4.86914,2.11719 -0.44738,0.19873 -0.87483,0.39296 -1.3125,0.58984 -1.14425,0.51476 -2.26329,1.02543 -3.33984,1.52539 -0.38704,0.17976 -0.77227,0.3576 -1.15039,0.53516 -1.07327,0.50398 -2.10145,0.99645 -3.10157,1.48047 -0.37739,0.18265 -0.77187,0.3713 -1.13867,0.55078 -0.28166,0.13783 -0.53129,0.26452 -0.80664,0.40039 -1.70109,0.83934 -3.26921,1.63384 -4.72265,2.38672 -0.36158,0.1873 -0.74599,0.38326 -1.0918,0.56445 -0.58091,0.30444 -1.03856,0.55773 -1.57422,0.84375 -1.43963,0.76882 -2.78341,1.49671 -3.88476,2.11328 -0.4361,0.24432 -0.85371,0.47826 -1.23438,0.69532 -0.76696,0.43757 -1.40231,0.8064 -1.93555,1.12109 C 941.05589,469.36978 940,470 940,470 c 0,0 0.50694,0.28365 1.34961,0.77344 0.22033,0.12779 0.504,0.3037 0.77734,0.46484 0.83044,0.48933 1.74997,1.03796 3.01367,1.82422 0.36931,0.2295 0.70823,0.44165 1.10938,0.69531 0.34297,0.21699 0.68825,0.43964 1.05273,0.67383 0.54806,0.35188 1.1029,0.71184 1.69532,1.10156 0.3698,0.24343 0.75137,0.50009 1.13672,0.75782 0.60423,0.40383 1.20338,0.80616 1.84179,1.24414 0.44063,0.30244 0.89672,0.62517 1.35156,0.94336 0.65408,0.45725 1.29918,0.90774 1.97852,1.39648 0.39713,0.28587 0.80848,0.59435 1.21289,0.89062 0.75444,0.55238 1.50049,1.09623 2.27539,1.6836 1.12599,0.85401 2.27137,1.74432 3.42383,2.66797 0.7218,0.57813 1.4479,1.19305 2.17383,1.79687 0.47259,0.39336 0.94338,0.77197 1.41601,1.17578 1.12104,0.95714 2.23703,1.93847 3.34571,2.95118 19.14655,17.48914 35.1208,42.91748 2.0332,64.55273 5.95663,1.31265 17.10614,6.6424 21.20117,27.88867 0.007,-0.005 0.0159,-0.0102 0.0234,-0.0156 0.86671,-0.6224 1.75952,-1.2355 2.68555,-1.83985 5.13278,-3.34972 11.17388,-6.38518 18.26758,-8.67187 0.6285,-0.20258 1.2654,-0.39929 1.9102,-0.58985 0.034,-0.01 0.068,-0.0212 0.1016,-0.0312 0.6105,-0.17957 1.2281,-0.35321 1.8535,-0.52148 0.085,-0.0229 0.1706,-0.0457 0.2558,-0.0684 0.6074,-0.16138 1.2204,-0.31849 1.8418,-0.46875 0.077,-0.0186 0.1552,-0.0362 0.2324,-0.0547 0.6195,-0.14796 1.2436,-0.29126 1.877,-0.42773 0.1387,-0.0299 0.2805,-0.0566 0.4199,-0.0859 0.5724,-0.1204 1.1466,-0.23893 1.7305,-0.34961 0.2275,-0.0432 0.4602,-0.0814 0.6894,-0.12304 0.5405,-0.0981 1.0807,-0.19758 1.6309,-0.28711 1.2611,-0.20521 2.5523,-0.38308 3.8652,-0.54102 0.2645,-0.0319 0.5245,-0.0678 0.7911,-0.0977 0.4595,-0.0514 0.9286,-0.0933 1.3945,-0.13867 0.37,-0.0361 0.7373,-0.0752 1.1113,-0.10742 0.4114,-0.0354 0.8298,-0.0651 1.2461,-0.0957 0.454,-0.0335 0.9074,-0.0661 1.3672,-0.0937 0.4143,-0.0249 0.8348,-0.0444 1.2539,-0.0645 0.4507,-0.0217 0.9011,-0.0425 1.3574,-0.0586 0.4171,-0.0146 0.8381,-0.0253 1.2598,-0.0352 0.5016,-0.0118 1.0055,-0.0205 1.5137,-0.0254 0.3828,-0.004 0.7677,-0.004 1.1543,-0.004 0.5481,3.9e-4 1.1005,0.003 1.6562,0.0117 0.3819,0.006 0.7649,0.0137 1.1504,0.0234 0.5371,0.0136 1.0789,0.0315 1.623,0.0527 0.4308,0.0168 0.8617,0.0349 1.2969,0.0566 0.5445,0.0272 1.095,0.0608 1.6465,0.0957 0.4178,0.0265 0.8341,0.053 1.2559,0.084 0.568,0.0417 1.1434,0.0905 1.7187,0.14062 0.4247,0.037 0.8467,0.0697 1.2754,0.11133 0.5845,0.0567 1.1776,0.12405 1.7695,0.18945 0.4422,0.0488 0.8799,0.0927 1.3262,0.14649 1.0087,0.12153 2.0283,0.25515 3.0586,0.40234 0,0 -0.2978,-0.38698 -0.8145,-1.11914 -0.5164,-0.73189 -1.2534,-1.80927 -2.1308,-3.19141 0,0 0,-0.002 0,-0.002 -2.8529,-4.49409 -7.2017,-12.20915 -10.3828,-21.74805 0,0 0,-0.002 0,-0.002 -0.4892,-1.46707 -0.9528,-2.97714 -1.377,-4.52539 0,0 0,-0.002 0,-0.002 -6.7894,-24.78224 -4.0058,-59.31124 48.125,-82.74024 3.2582,-1.46431 6.708,-2.88531 10.3613,-4.25781 12.787,-4.80374 28.0547,-9.01367 46.2188,-12.41211 -1.5751,-0.49223 -3.1489,-0.95863 -4.7207,-1.41016 -0.4333,-0.12447 -0.8658,-0.24185 -1.2988,-0.36328 -1.1399,-0.31963 -2.2783,-0.6309 -3.416,-0.92968 -0.5321,-0.13974 -1.0642,-0.27688 -1.5957,-0.41211 -1.0563,-0.2687 -2.1119,-0.52618 -3.1661,-0.77735 -0.508,-0.12104 -1.0159,-0.24625 -1.5234,-0.36328 -1.3607,-0.31376 -2.7194,-0.61311 -4.0762,-0.89844 -0.1782,-0.0375 -0.357,-0.0782 -0.5351,-0.11523 -1.5717,-0.32639 -3.1413,-0.63261 -4.7071,-0.92188 -0.3755,-0.0694 -0.7498,-0.12999 -1.125,-0.19726 -1.1411,-0.20465 -2.2802,-0.40241 -3.4179,-0.58789 -0.5671,-0.0924 -1.1332,-0.18177 -1.6992,-0.26953 -1.0235,-0.15865 -2.0462,-0.30957 -3.0665,-0.45313 -0.4956,-0.0697 -0.9914,-0.14082 -1.4863,-0.20703 -1.2045,-0.16119 -2.4057,-0.31044 -3.6055,-0.45117 -0.3246,-0.0381 -0.6503,-0.0806 -0.9746,-0.11719 -1.5452,-0.17442 -3.0863,-0.33307 -4.623,-0.47461 -0.1697,-0.0156 -0.3383,-0.0277 -0.5078,-0.043 -1.3394,-0.12032 -2.6754,-0.22809 -4.0078,-0.32422 -0.461,-0.0332 -0.9208,-0.0614 -1.3809,-0.0918 -1.0462,-0.0692 -2.0911,-0.13084 -3.1328,-0.18555 -0.5136,-0.027 -1.0266,-0.0546 -1.5391,-0.0781 -1.0162,-0.0466 -2.0294,-0.0839 -3.041,-0.11718 -0.4921,-0.0162 -0.9856,-0.0358 -1.4765,-0.0488 -1.4593,-0.0389 -2.9144,-0.068 -4.3633,-0.0801 z M 968.99414,556.97461 c -0.91137,0.55573 -1.87037,1.10811 -2.84961,1.6582 0.98111,-0.55004 1.93713,-1.10243 2.84961,-1.6582 z m -3.98633,2.28906 c -0.93239,0.50792 -1.89805,1.01303 -2.89062,1.51563 0.99497,-0.50266 1.95605,-1.00764 2.89062,-1.51563 z"
         style="fill:#d81b60;fill-opacity:1;stroke:none;stroke-width:0.99999994px;stroke-linecap:butt;stroke-linejoin:miter;stroke-opacity:1"
         inkscape:connector-curvature="0" />
      <path
         id="path5268"
         d="m 237.94585,134.37709 c -12.62135,0 -11.8332,5.47338 -11.8332,5.47338 l 0.014,5.67037 h 12.04425 v 1.70251 h -16.82817 c 0,0 -8.0764,-0.91594 -8.0764,11.81912 0,12.73505 7.04926,12.28343 7.04926,12.28343 h 4.20704 v -5.90955 c 0,0 -0.22676,-7.04926 6.93671,-7.04926 h 11.94574 c 0,0 6.71157,0.10856 6.71157,-6.48645 V 140.9761 c 0,0 1.019,-6.59901 -12.17087,-6.59901 z m -6.64123,3.81308 c 1.19832,-1e-5 2.16684,0.96852 2.16684,2.16683 0,1.19832 -0.96852,2.16684 -2.16684,2.16684 -1.19831,0 -2.16683,-0.96852 -2.16683,-2.16684 -1e-5,-1.19831 0.96852,-2.16683 2.16683,-2.16683 z"
         inkscape:connector-curvature="0"
         style="fill:url(#linearGradient5274);stroke-width:0.26458332" />
    </g>
  </g>
</svg>
