<?xml version="1.0" encoding="UTF-8" standalone="no"?>
<svg
   xmlns:dc="http://purl.org/dc/elements/1.1/"
   xmlns:cc="http://creativecommons.org/ns#"
   xmlns:rdf="http://www.w3.org/1999/02/22-rdf-syntax-ns#"
   xmlns:svg="http://www.w3.org/2000/svg"
   xmlns="http://www.w3.org/2000/svg"
   xmlns:xlink="http://www.w3.org/1999/xlink"
   xmlns:sodipodi="http://sodipodi.sourceforge.net/DTD/sodipodi-0.dtd"
   xmlns:inkscape="http://www.inkscape.org/namespaces/inkscape"
   width="500"
   height="264.73795"
   viewBox="0 0 132.29166 70.04525"
   version="1.1"
   id="svg1231"
   inkscape:version="1.0.1 (3bc2e813f5, 2020-09-07)"
   sodipodi:docname="hentai.svg">
  <title
     id="title5331">Python Hentai API Wrapper Logo</title>
  <defs
     id="defs1225">
    <linearGradient
       gradientUnits="userSpaceOnUse"
       gradientTransform="matrix(0.14724234,0,0,0.1475707,223.24983,244.26235)"
       x1="24.714943"
       y1="22.898216"
       x2="151.13554"
       y2="148.33669"
       id="linearGradient-1">
      <stop
         stop-color="#387EB8"
         offset="0%"
         id="stop2" />
      <stop
         stop-color="#366994"
         offset="100%"
         id="stop4" />
    </linearGradient>
    <linearGradient
       gradientUnits="userSpaceOnUse"
       gradientTransform="matrix(0.14724233,0,0,0.14757071,223.24983,244.26235)"
       x1="102.48342"
       y1="103.26588"
       x2="238.25963"
       y2="231.90547"
       id="linearGradient-2">
      <stop
         stop-color="#FFE052"
         offset="0%"
         id="stop7" />
      <stop
         stop-color="#FFC331"
         offset="100%"
         id="stop9" />
    </linearGradient>
    <linearGradient
       inkscape:collect="always"
       xlink:href="#linearGradient-1"
       id="linearGradient5274"
       gradientUnits="userSpaceOnUse"
       gradientTransform="matrix(0.19446016,0,0,0.19489382,239.69659,250.13344)"
       x1="24.714943"
       y1="22.898216"
       x2="151.13554"
       y2="148.33669" />
    <linearGradient
       inkscape:collect="always"
       xlink:href="#linearGradient-2"
       id="linearGradient5276"
       gradientUnits="userSpaceOnUse"
       gradientTransform="matrix(0.19446015,0,0,0.19489383,239.69659,250.13344)"
       x1="102.48342"
       y1="103.26588"
       x2="238.25963"
       y2="231.90547" />
  </defs>
  <sodipodi:namedview
     id="base"
     pagecolor="#ffffff"
     bordercolor="#666666"
     borderopacity="1.0"
     inkscape:pageopacity="0.0"
     inkscape:pageshadow="2"
     inkscape:zoom="1.5818127"
     inkscape:cx="247.99567"
     inkscape:cy="148.87744"
     inkscape:document-units="px"
     inkscape:current-layer="layer1"
     showgrid="true"
     units="px"
     inkscape:window-width="1920"
     inkscape:window-height="1017"
     inkscape:window-x="1912"
     inkscape:window-y="-8"
     inkscape:window-maximized="1"
     fit-margin-top="0"
     fit-margin-left="0"
     fit-margin-right="0"
     fit-margin-bottom="0"
     inkscape:document-rotation="0">
    <inkscape:grid
       type="xygrid"
       id="grid1776"
       spacingx="2.6458333"
       spacingy="2.6458333"
       originx="-198.43749"
       originy="-229.56071" />
  </sodipodi:namedview>
  <metadata
     id="metadata1228">
    <rdf:RDF>
      <cc:Work
         rdf:about="">
        <dc:format>image/svg+xml</dc:format>
        <dc:type
           rdf:resource="http://purl.org/dc/dcmitype/StillImage" />
        <dc:title>Python Hentai API Wrapper Logo</dc:title>
        <dc:date>2020/04/24</dc:date>
        <dc:creator>
          <cc:Agent>
            <dc:title>ヘンタイちゃん</dc:title>
          </cc:Agent>
        </dc:creator>
        <dc:rights>
          <cc:Agent>
            <dc:title>ヘンタイちゃん</dc:title>
          </cc:Agent>
        </dc:rights>
        <cc:license
           rdf:resource="http://www.gnu.org/licenses/gpl-3.0.html" />
      </cc:Work>
    </rdf:RDF>
  </metadata>
  <g
     inkscape:label="Layer 1"
     inkscape:groupmode="layer"
     id="layer1"
     transform="translate(-198.4375,2.605955)"
     style="display:inline"
     sodipodi:insensitive="true">
    <g
       id="g862"
       style="display:inline"
       transform="translate(-3.4398064e-7,-232.16667)">
      <path
         id="path5315"
         d="m 216.50203,229.56244 c -0.33309,-0.002 -0.66722,-0.002 -1.00252,5.3e-4 -5.46999,0.0456 -11.227,0.80068 -17.06201,2.62412 43.93974,8.22097 23.8125,34.39583 23.8125,34.39583 8.51553,-1.2165 14.22865,0.92443 17.92242,3.59099 1.13988,-5.29076 4.20866,-6.71509 6.08955,-7.07657 C 230.18187,253.21857 254,240.12459 254,240.12459 c 0,0 -16.51304,-10.40772 -37.49797,-10.56215 z"
         style="fill:#d81b60;fill-opacity:1;stroke:none;stroke-width:0.264583px;stroke-linecap:butt;stroke-linejoin:miter;stroke-opacity:1"
         inkscape:connector-curvature="0" />
      <path
         id="path5270"
         d="m 264.76261,299.60596 c 12.62135,0 11.83321,-5.47338 11.83321,-5.47338 l -0.0141,-5.67037 h -12.04427 v -1.70252 h 16.82817 c 0,0 8.07639,0.91595 8.07639,-11.81912 0,-12.73505 -7.04924,-12.28344 -7.04924,-12.28344 h -4.20707 v 5.90956 c 0,0 0.22678,7.04927 -6.93669,7.04927 h -11.94575 c 0,0 -6.71157,-0.10843 -6.71157,6.48644 v 10.90455 c 0,0 -1.019,6.59901 12.17088,6.59901 v 0 z m 6.64123,-3.81307 c -1.19831,0 -2.16684,-0.96854 -2.16684,-2.16685 0,-1.19832 0.96853,-2.16684 2.16684,-2.16684 1.19831,0 2.16683,0.96852 2.16683,2.16684 2e-5,1.19831 -0.96852,2.16685 -2.16683,2.16685 z"
         inkscape:connector-curvature="0"
         style="fill:url(#linearGradient5276);stroke-width:0.264583" />
      <path
         id="path5268"
         d="m 264.40418,250.14751 c -12.62135,0 -11.8332,5.47338 -11.8332,5.47338 l 0.014,5.67037 h 12.04424 v 1.70251 h -16.82816 c 0,0 -8.0764,-0.91594 -8.0764,11.81912 0,12.73505 7.04926,12.28343 7.04926,12.28343 h 4.20704 v -5.90955 c 0,0 -0.22676,-7.04926 6.93671,-7.04926 h 11.94574 c 0,0 6.71157,0.10856 6.71157,-6.48645 v -10.90454 c 0,0 1.019,-6.59901 -12.17088,-6.59901 z m -6.64123,3.81308 c 1.19832,-1e-5 2.16685,0.96852 2.16685,2.16683 0,1.19832 -0.96853,2.16684 -2.16685,2.16684 -1.19831,0 -2.16683,-0.96852 -2.16683,-2.16684 -1e-5,-1.19831 0.96852,-2.16683 2.16683,-2.16683 z"
         inkscape:connector-curvature="0"
         style="fill:url(#linearGradient5274);stroke-width:0.264583" />
      <path
         id="path847"
         style="fill:#d81b60;fill-opacity:1;stroke:none;stroke-width:0.999999px;stroke-linecap:butt;stroke-linejoin:miter;stroke-opacity:1"
         d="M 431.72461,-0.03710937 C 352.41152,0.54656307 290,39.882812 290,39.882812 c 0,0 88.08241,48.435031 31.11914,85.623048 5.93457,1.28461 17.14632,6.56333 21.26367,27.86719 13.96428,-10.03924 35.52207,-18.07524 67.61719,-13.49024 0,0 -76.07146,-98.928577 90,-129.9999975 -22.05354,-6.8917418 -43.81239,-9.74562229 -64.48633,-9.91796875 -1.26731,-0.0095622 -2.5301,-0.0095122 -3.78906,-0.0019531 z"
         transform="matrix(0.26458333,0,0,0.26458333,198.4375,229.56071)" />
    </g>
  </g>
</svg>
